<?xml version="1.0" encoding="utf-8"?>
<!-- Generator: Adobe Illustrator 23.0.2, SVG Export Plug-In . SVG Version: 6.00 Build 0)  -->
<svg version="1.1" id="Calque_1" xmlns="http://www.w3.org/2000/svg" xmlns:xlink="http://www.w3.org/1999/xlink" x="0px" y="0px"
	 viewBox="0 0 512 512" style="enable-background:new 0 0 512 512;" xml:space="preserve">
<path d="M69.6,448.1h91.9V272.7h188.2v175.4h91.9V191.7l-186-127.8l-186,127.8V448.1z M69.6,512c-19.3,0-35.7-6.2-49.3-18.7
	C6.8,480.8,0,465.8,0,448.1V191.7c0-10,2.5-19.5,7.4-28.6c4.9-9.1,11.9-16.5,20.7-22.4L213.4,12.9c6.4-4.1,13.3-7.3,20.7-9.5
	c7.4-2.3,14.6-3.4,21.5-3.4c7.4,0,14.7,1.1,21.9,3.4c7.2,2.3,14,5.4,20.4,9.5l185.2,127.8c8.9,6.3,15.9,13.9,21.1,22.8
	c5.2,8.8,7.8,18.2,7.8,28.2v256.3c0,17.7-6.9,32.8-20.7,45.2c-13.8,12.5-30.4,18.7-49.6,18.7H288.2V329.1H223V512H69.6z"/>
</svg>
