<?xml version="1.0" encoding="utf-8"?>
<!-- Generator: Adobe Illustrator 23.0.2, SVG Export Plug-In . SVG Version: 6.00 Build 0)  -->
<svg version="1.1"
	 id="Calque_1" xmlns:cc="http://creativecommons.org/ns#" xmlns:dc="http://purl.org/dc/elements/1.1/" xmlns:rdf="http://www.w3.org/1999/02/22-rdf-syntax-ns#"
	 xmlns="http://www.w3.org/2000/svg" xmlns:xlink="http://www.w3.org/1999/xlink" x="0px" y="0px" viewBox="0 0 80 120"
	 style="enable-background:new 0 0 80 120;" xml:space="preserve">
<style type="text/css">
	.st0{fill:#3276C3;}
	.st1{fill:#1F4D7F;}
</style>
<g id="SVGRepo_bgCarrier">
</g>
<g id="SVGRepo_tracerCarrier">
</g>
<g id="SVGRepo_iconCarrier">
	<g transform="translate(0 -1028.4)">
		<path class="st0" d="M40,1028.4c-22.1,0-40,17.9-40,40c0,7.1,1.9,13.8,5.2,19.5c0.5,1,1.1,1.9,1.7,2.8l33.1,57.7l33.1-57.7
			c0.5-0.8,1-1.6,1.4-2.3l0.3-0.5c3.2-5.8,5.2-12.4,5.2-19.5C80,1046.3,62.1,1028.4,40,1028.4z M40,1048.4c11,0,20,9,20,20
			c0,11-9,20-20,20c-11,0-20-9-20-20C20,1057.4,29,1048.4,40,1048.4z"/>
		<path class="st1" d="M40,1043.4c-13.8,0-25,11.2-25,25c0,13.8,11.2,25,25,25c13.8,0,25-11.2,25-25
			C65,1054.6,53.8,1043.4,40,1043.4z M40,1053.4c8.3,0,15,6.7,15,15s-6.7,15-15,15s-15-6.7-15-15S31.7,1053.4,40,1053.4z"/>
	</g>
</g>
</svg>
