<?xml version="1.0" encoding="utf-8"?>
<!-- Generator: Adobe Illustrator 23.0.2, SVG Export Plug-In . SVG Version: 6.00 Build 0)  -->
<svg version="1.1"
	 id="Calque_1" xmlns:cc="http://creativecommons.org/ns#" xmlns:dc="http://purl.org/dc/elements/1.1/" xmlns:rdf="http://www.w3.org/1999/02/22-rdf-syntax-ns#"
	 xmlns="http://www.w3.org/2000/svg" xmlns:xlink="http://www.w3.org/1999/xlink" x="0px" y="0px" viewBox="0 0 109.9 51.7"
	 style="enable-background:new 0 0 109.9 51.7;" xml:space="preserve">
<style type="text/css">
	.st0{fill:url(#SVGID_1_);}
</style>
<g id="SVGRepo_bgCarrier">
</g>
<g id="SVGRepo_tracerCarrier">
</g>
<linearGradient id="SVGID_1_" gradientUnits="userSpaceOnUse" x1="-1.5119" y1="35.4327" x2="97.0245" y2="35.4327" gradientTransform="matrix(0.9877 0.1564 8.496948e-02 1.0259 -4.297 -18.0254)">
	<stop  offset="1.955307e-02" style="stop-color:#FFFFFF;stop-opacity:0.1"/>
	<stop  offset="0.8" style="stop-color:#525252;stop-opacity:0.4"/>
</linearGradient>
<path class="st0" d="M109.7,12.8C108.2,0.5,90.5-3.7,70.3,3.5C63.8,5.8,57.8,9,52.8,12.7c-0.9,0.6-1.7,1.2-2.4,1.9L0,51.7l55.1-0.3
	c0.8,0,1.5,0,2.2,0l0.5,0c5.5-0.1,11.7-1.1,18.2-3.4C96.3,40.8,111.3,25.1,109.7,12.8z M59.4,30.6c-0.6-4.6,5-10.5,12.6-13.2
	c7.6-2.7,14.2-1.1,14.8,3.5c0.6,4.6-5,10.5-12.6,13.2C66.7,36.8,60,35.2,59.4,30.6z"/>
</svg>
